<svg xmlns="http://www.w3.org/2000/svg" version="1.1" xmlns:xlink="http://www.w3.org/1999/xlink" xmlns:svgjs="http://svgjs.dev/svgjs" width="1440" height="560" preserveAspectRatio="none" viewBox="0 0 1440 560">
  <defs>
    <linearGradient id="grad1" x1="30%" y1="0%" x2="100%" y2="0%">
      <stop offset="0%" style="stop-color:#24231F" />
      <stop offset="20%" style="stop-color:#444039" />
      <stop offset="80%" style="stop-color:#CBB99F" />
    </linearGradient>

    <mask id="SvgjsMask1013">
      <rect width="1440" height="560" fill="#ffffff"></rect>
    </mask>
  </defs>
  <g mask="url(&quot;#SvgjsMask1013&quot;)" fill="none">
    <path d="M -853.9929800538421,355 C -757.99,310.4 -565.99,145.2 -373.99298005384213,132 C -181.99,118.8 -85.99,277 106.00701994615787,289 C 298.01,301 394.01,157.6 586.0070199461579,192 C 778.01,226.4 895.21,471.2 1066.007019946158,461 C 1236.81,450.8 1365.2,205 1440,141" stroke="url(#grad1)" stroke-width="2"></path>
    <path d="M -152.4374050079076,276 C -56.44,279.2 135.56,312.6 327.5625949920924,292 C 519.56,271.4 615.56,169.8 807.5625949920924,173 C 999.56,176.2 1095.56,290 1287.5625949920923,308 C 1479.56,326 1737.08,235.6 1767.5625949920923,263 C 1798.05,290.4 1505.51,408.6 1440,445" stroke="url(#grad1)" stroke-width="2"></path>
    <path d="M -111.5288909621479,331 C -15.53,314.4 176.47,240 368.4711090378521,248 C 560.47,256 656.47,394.4 848.4711090378521,371 C 1040.47,347.6 1136.47,143.8 1328.471109037852,131 C 1520.47,118.2 1786.17,283.4 1808.471109037852,307 C 1830.78,330.6 1513.69,260.6 1440,249" stroke="url(#grad1)" stroke-width="2"></path>
    <path d="M -580.7980511420933,486 C -484.8,432.4 -292.8,250 -100.79805114209336,218 C 91.2,186 187.2,331 379.20194885790664,326 C 571.2,321 667.2,191.2 859.2019488579067,193 C 1051.2,194.8 1223.04,334.6 1339.2019488579067,335 C 1455.36,335.4 1419.84,223 1440,195" stroke="url(#grad1)" stroke-width="2"></path>
  </g>
</svg>
